# xmcd
# Track frame offsets:
# 150
# 13094
# 28527
# 45270
# 56067
# 71728
# 85380
# 98571
# 114926
# 129680
# 147271
# 160350
# 181261
# 199064
# 212172
#
# Disc length: 3020 seconds
# Revision: 0
# Processed by: cddbd v1.4PL0 Copyright (c) Steve Scherf et al.
# Submitted via: VisiTrax 2.9.5.180 - For more info visit www.synapsa.com
#
DISCID=cf0bca0f
DTITLE=Roughstring - Cowboy's Life
DYEAR=2003
DGENRE=Cowboy
TTITLE0=Cowboy's Life
TTITLE1=Tye The Wind
TTITLE2=Colorado Trail
TTITLE3=Our Sweet Love
TTITLE4=MC Horses
TTITLE5=Sunset
TTITLE6=Running Gun
TTITLE7=Out Of Time
TTITLE8=Spring Winds
TTITLE9=No Reason Left To Complain
TTITLE10=Early Ride
TTITLE11=El Llamo Estadado
TTITLE12=Cowpoke
TTITLE13=Panhandle Rag
TTITLE14=Roughstring Rider
EXTD=
EXTT0=
EXTT1=
EXTT2=
EXTT3=
EXTT4=
EXTT5=
EXTT6=
EXTT7=
EXTT8=
EXTT9=
EXTT10=
EXTT11=
EXTT12=
EXTT13=
EXTT14=
PLAYORDER=
